<?xml version="1.0" standalone="no"?>
<!DOCTYPE svg PUBLIC "-//W3C//DTD SVG 20010904//EN"
 "http://www.w3.org/TR/2001/REC-SVG-20010904/DTD/svg10.dtd">
<svg version="1.0" xmlns="http://www.w3.org/2000/svg"
 width="800.000000pt" height="800.000000pt" viewBox="0 0 800.000000 800.000000"
 preserveAspectRatio="xMidYMid meet">
<metadata>
Created by potrace 1.11, written by Peter Selinger 2001-2013
</metadata>
<g transform="translate(0.000000,800.000000) scale(0.100000,-0.100000)"
fill="#000000" stroke="none">
<path d="M3579 7936 c-2 -2 -26 -6 -54 -10 -105 -12 -144 -19 -260 -42 -66
-14 -131 -27 -145 -30 -14 -3 -32 -7 -40 -9 -8 -2 -15 -4 -15 -5 0 -1 -7 -3
-15 -5 -75 -15 -354 -102 -405 -125 -11 -5 -45 -19 -75 -30 -30 -11 -64 -25
-75 -30 -11 -5 -42 -19 -70 -31 -58 -25 -263 -127 -315 -156 -102 -58 -217
-128 -228 -140 -8 -7 -18 -11 -23 -8 -5 4 -9 2 -9 -4 0 -5 -17 -20 -37 -32
-21 -13 -40 -25 -43 -28 -3 -4 -27 -22 -55 -40 -27 -19 -52 -37 -55 -41 -3 -3
-23 -18 -45 -35 -109 -79 -292 -244 -416 -371 -111 -115 -105 -109 -172 -189
-32 -39 -66 -79 -76 -90 -59 -68 -239 -323 -271 -385 -7 -14 -16 -27 -19 -30
-11 -9 -101 -169 -101 -180 0 -5 -4 -10 -10 -10 -5 0 -10 -9 -10 -19 0 -11 -4
-22 -9 -26 -9 -5 -24 -35 -100 -197 -54 -115 -163 -407 -186 -498 -3 -8 -14
-49 -25 -90 -12 -41 -23 -84 -25 -95 -2 -11 -15 -69 -29 -130 -13 -60 -27
-129 -31 -153 l-7 -42 583 2 583 3 8 35 c15 62 49 174 68 225 65 179 128 325
143 336 5 3 8 9 8 13 -2 10 42 94 97 184 l49 83 447 -446 c245 -246 445 -450
443 -453 -23 -52 -36 -85 -37 -97 0 -3 -7 -22 -15 -42 -8 -21 -17 -49 -19 -63
-3 -14 -5 -25 -6 -25 -2 0 -7 -22 -19 -85 -6 -30 -13 -68 -17 -85 -10 -49 -13
-366 -4 -415 5 -25 17 -83 26 -130 31 -158 121 -385 196 -497 15 -23 28 -46
28 -52 0 -6 3 -11 8 -11 4 0 18 -17 32 -37 41 -61 188 -227 219 -247 7 -4 21
-16 31 -26 28 -28 169 -130 180 -130 5 0 10 -4 10 -8 0 -22 346 -176 420 -187
14 -3 68 -14 120 -26 75 -17 131 -21 265 -23 197 -1 303 10 423 44 10 3 18 6
102 31 41 12 82 26 90 30 8 5 51 24 95 44 43 20 82 39 85 43 3 4 16 13 30 20
46 23 95 54 98 63 2 5 8 9 14 9 30 0 242 201 329 311 60 75 159 231 159 250 0
5 4 9 10 9 5 0 9 3 8 8 -1 4 9 30 22 57 45 100 99 273 115 370 20 125 23 164
20 305 -3 162 -6 187 -31 308 -17 81 -71 250 -87 270 -5 6 -7 12 -3 12 3 0
-16 42 -43 93 -69 129 -85 157 -93 157 -5 0 -8 5 -8 11 0 10 -63 96 -107 146
-175 199 -356 330 -603 436 -55 23 -104 41 -115 42 -5 1 -17 4 -25 7 -40 14
-89 27 -124 32 -21 4 -41 8 -45 10 -17 11 -152 21 -281 21 -173 0 -212 -4
-376 -39 -40 -8 -169 -48 -179 -55 -5 -4 -27 -13 -48 -20 l-38 -13 -439 440
c-242 242 -440 445 -440 450 0 6 9 14 20 17 11 3 26 12 32 19 13 12 82 51 218
123 36 19 65 33 65 32 0 -1 16 5 35 14 95 43 130 57 142 57 8 0 18 4 24 8 17
16 216 79 319 102 28 7 58 14 68 16 83 20 177 36 210 35 16 0 17 35 17 595 l0
594 -28 0 c-16 0 -31 -2 -33 -4z m676 -3174 c219 -72 378 -208 478 -407 94
-186 111 -431 44 -621 -96 -270 -317 -464 -600 -527 -67 -15 -266 -17 -314 -3
-13 3 -32 8 -44 11 -121 26 -284 118 -371 208 -85 89 -138 170 -182 280 -38
96 -48 147 -51 277 -3 94 1 131 20 206 50 199 163 363 325 472 158 106 287
142 490 137 96 -3 130 -8 205 -33z"/>
<path d="M4910 7243 l0 -628 83 -28 c85 -30 395 -177 419 -200 7 -7 49 -34 93
-59 44 -26 89 -55 100 -65 11 -10 45 -36 76 -58 116 -82 289 -243 414 -386 47
-53 85 -101 85 -106 0 -5 12 -20 26 -34 15 -13 46 -54 70 -91 24 -37 67 -104
97 -150 29 -46 73 -126 98 -178 24 -52 49 -100 55 -107 13 -14 102 -250 111
-294 3 -16 10 -29 15 -29 5 0 6 -5 2 -11 -3 -6 -2 -14 3 -18 14 -8 68 -240 87
-371 12 -82 38 -379 38 -435 0 -56 -26 -353 -38 -435 -19 -131 -73 -363 -87
-371 -5 -4 -6 -12 -3 -18 4 -6 3 -11 -2 -11 -5 0 -12 -13 -15 -29 -9 -44 -98
-280 -111 -294 -6 -7 -31 -55 -55 -107 -25 -52 -69 -132 -98 -178 -30 -46 -73
-113 -97 -150 -24 -37 -55 -78 -70 -91 -14 -14 -26 -29 -26 -34 0 -5 -38 -53
-85 -106 -125 -143 -298 -304 -414 -386 -31 -22 -65 -48 -76 -58 -11 -10 -56
-39 -100 -65 -44 -25 -86 -52 -93 -59 -31 -30 -347 -176 -467 -215 -71 -23
-132 -46 -135 -49 -7 -9 -195 -54 -305 -73 -49 -9 -151 -21 -225 -26 -74 -6
-166 -14 -205 -18 -38 -4 -101 -4 -140 0 -38 4 -131 12 -205 17 -74 6 -175 18
-225 27 -110 19 -298 64 -305 73 -3 3 -63 26 -135 49 -120 39 -436 185 -467
215 -7 7 -49 34 -93 59 -44 26 -89 55 -100 65 -11 10 -45 36 -76 58 -116 82
-289 243 -414 386 -47 53 -85 101 -85 106 0 5 -12 20 -26 34 -15 13 -46 54
-70 91 -24 37 -67 104 -97 150 -29 46 -73 126 -98 178 -24 52 -47 98 -52 101
-9 6 -64 144 -96 242 l-23 67 -602 0 -603 0 5 -30 c2 -16 8 -30 12 -30 5 0 6
-9 3 -20 -3 -12 0 -20 6 -20 7 0 9 -4 6 -10 -6 -9 14 -90 25 -100 3 -3 6 -18
7 -35 1 -16 7 -31 13 -33 5 -2 8 -7 5 -12 -6 -10 62 -208 120 -351 36 -88 181
-385 214 -439 5 -8 27 -44 47 -80 21 -36 42 -66 46 -68 4 -2 8 -8 8 -12 0 -16
161 -241 262 -366 546 -681 1280 -1156 2104 -1362 319 -80 600 -112 984 -112
384 0 665 32 984 112 824 206 1558 681 2104 1362 101 125 262 350 262 366 0 4
4 10 8 12 4 2 25 32 46 68 20 36 42 72 47 80 33 54 178 351 214 439 58 143
126 341 120 351 -3 5 0 10 5 12 6 2 12 17 13 33 1 17 4 32 7 35 11 10 31 91
25 100 -3 6 -1 10 6 10 6 0 9 8 6 20 -3 10 -1 20 4 22 5 2 10 22 12 45 1 24 5
43 8 43 4 0 10 21 15 48 7 45 10 65 18 139 2 17 7 36 10 42 3 5 9 45 11 88 3
43 10 122 15 177 13 127 13 565 0 692 -5 55 -12 134 -15 177 -2 43 -8 83 -11
88 -3 6 -8 25 -10 42 -8 74 -11 94 -18 140 -5 26 -11 47 -15 47 -3 0 -7 19 -8
43 -2 23 -7 43 -12 45 -5 2 -7 12 -4 22 3 12 0 20 -6 20 -7 0 -9 4 -6 10 6 9
-14 90 -25 100 -3 3 -6 18 -7 35 -1 16 -7 31 -13 33 -5 2 -8 7 -5 12 6 10 -62
208 -120 351 -36 88 -181 385 -214 439 -5 8 -27 44 -47 80 -21 36 -42 67 -46
68 -4 2 -8 8 -8 12 0 16 -161 241 -262 366 -475 592 -1083 1023 -1788 1268
-126 44 -379 116 -407 116 -10 0 -13 -132 -13 -627z"/>
</g>
</svg>
